# xmcd
#
# Track frame offsets:
#	150
#	24110
#	45610
#	65532
#	87190
#	108355
#	135535
#	155147
#	173135
#	192392
#
# Disc length: 2787 seconds
#
# Revision: 1
# Processed by: cddbd v1.5.1PL0 Copyright (c) Steve Scherf et al.
# Submitted via: CDex 1.50Beta5
#
DISCID=7e0ae10a
DTITLE=五輪真弓 - 21世紀
DYEAR=1996
DGENRE=
TTITLE0=21世紀
TTITLE1=ヒットパレードを聴きながら
TTITLE2=うたかた
TTITLE3=いつかあなたと
TTITLE4=風よ
TTITLE5=恋は突然に
TTITLE6=心の旅立ち
TTITLE7=ハッピーソング
TTITLE8=瞼を閉じて
TTITLE9=春・のすたるじい
EXTD=
EXTT0=
EXTT1=
EXTT2=
EXTT3=
EXTT4=
EXTT5=
EXTT6=
EXTT7=
EXTT8=
EXTT9=
PLAYORDER=
